<svg width="150" height="150" viewBox="0 0 150 150" fill="none" xmlns="http://www.w3.org/2000/svg">
<g clip-path="url(#clip0_3_35)">
<path d="M91.3589 150H58.6816C26.247 150 0 123.72 0 91.3342V58.6658C0 26.2399 26.247 0 58.6816 0H91.3589C123.753 0 150.04 26.2399 150.04 58.6658V91.3342C150 123.72 123.753 150 91.3589 150Z" fill="white"/>
<path d="M113.926 45.2428C113.926 38.8546 108.749 33.6794 102.359 33.6794C95.9693 33.6794 90.7927 38.8546 90.7927 45.2428V45.4854C90.7927 48.639 92.4508 52.1565 95.7266 55.9166C97.951 58.4638 100.175 60.2832 100.256 60.3641L102.319 62.0622L104.381 60.3641C104.462 60.2832 106.686 58.4638 108.911 55.9166C112.187 52.1565 113.845 48.639 113.845 45.4854V45.2428H113.926ZM110.367 45.6067C110.367 49.0838 106.363 54.3398 102.359 58.3021C98.3958 54.3398 94.3516 49.0433 94.3516 45.6067V45.2024C94.3516 40.7953 97.951 37.197 102.359 37.197C106.767 37.197 110.367 40.7953 110.367 45.2024V45.6067Z" fill="#3A3957"/>
<path d="M113.926 86.8867C115.745 86.8867 117.242 88.3827 117.242 90.2021C117.242 92.0215 115.745 93.5174 113.926 93.5174C112.106 93.5174 110.609 92.0215 110.609 90.2021C110.65 88.3827 112.106 86.8867 113.926 86.8867Z" fill="#3A3957"/>
<path d="M113.926 98.2886C115.745 98.2886 117.242 99.7845 117.242 101.604C117.242 103.423 115.745 104.919 113.926 104.919C112.106 104.919 110.609 103.423 110.609 101.604C110.65 99.7845 112.106 98.2886 113.926 98.2886Z" fill="#3A3957"/>
<path d="M113.926 109.69C115.745 109.69 117.242 111.186 117.242 113.006C117.242 114.825 115.745 116.321 113.926 116.321C112.106 116.321 110.609 114.825 110.609 113.006C110.65 111.186 112.106 109.69 113.926 109.69Z" fill="#3A3957"/>
<path d="M90.7927 64.0837C92.6126 64.0837 94.1089 65.5797 94.1089 67.3991C94.1089 69.2185 92.6126 70.7145 90.7927 70.7145C88.9728 70.7145 87.4764 69.2185 87.4764 67.3991C87.4764 65.5797 88.9728 64.0837 90.7927 64.0837Z" fill="#3A3957"/>
<path d="M102.359 86.8867C104.179 86.8867 105.675 88.3827 105.675 90.2021C105.675 92.0215 104.179 93.5174 102.359 93.5174C100.539 93.5174 99.0428 92.0215 99.0428 90.2021C99.0428 88.3827 100.539 86.8867 102.359 86.8867Z" fill="#3A3957"/>
<path d="M102.359 64.0837C104.179 64.0837 105.675 65.5797 105.675 67.3991C105.675 69.2185 104.179 70.7145 102.359 70.7145C100.539 70.7145 99.0428 69.2185 99.0428 67.3991C99.0428 65.5797 100.539 64.0837 102.359 64.0837Z" fill="#3A3957"/>
<path d="M90.7927 86.8867C92.6126 86.8867 94.1089 88.3827 94.1089 90.2021C94.1089 92.0215 92.6126 93.5174 90.7927 93.5174C88.9728 93.5174 87.4764 92.0215 87.4764 90.2021C87.4764 88.3827 88.9728 86.8867 90.7927 86.8867Z" fill="#3A3957"/>
<path d="M90.7927 75.4856C92.6126 75.4856 94.1089 76.9815 94.1089 78.801C94.1089 80.6204 92.6126 82.1163 90.7927 82.1163C88.9728 82.1163 87.4764 80.6204 87.4764 78.801C87.4764 76.9815 88.9728 75.4856 90.7927 75.4856Z" fill="#3A3957"/>
<path d="M102.359 109.69C104.179 109.69 105.675 111.186 105.675 113.006C105.675 114.825 104.179 116.321 102.359 116.321C100.539 116.321 99.0428 114.825 99.0428 113.006C99.0428 111.186 100.539 109.69 102.359 109.69Z" fill="#3A3957"/>
<path d="M90.7927 109.69C92.6126 109.69 94.1089 111.186 94.1089 113.006C94.1089 114.825 92.6126 116.321 90.7927 116.321C88.9728 116.321 87.4764 114.825 87.4764 113.006C87.4764 111.186 88.9728 109.69 90.7927 109.69Z" fill="#3A3957"/>
<path d="M79.2261 109.69C81.046 109.69 82.5423 111.186 82.5423 113.006C82.5423 114.825 81.046 116.321 79.2261 116.321C77.4062 116.321 75.9098 114.825 75.9098 113.006C75.9098 111.186 77.4062 109.69 79.2261 109.69Z" fill="#3A3957"/>
<path d="M67.6597 109.69C69.4796 109.69 70.9759 111.186 70.9759 113.006C70.9759 114.825 69.4796 116.321 67.6597 116.321C65.8398 116.321 64.3434 114.825 64.3434 113.006C64.3434 111.186 65.7993 109.69 67.6597 109.69Z" fill="#3A3957"/>
<path d="M56.0528 109.69C57.8727 109.69 59.369 111.186 59.369 113.006C59.369 114.825 57.8727 116.321 56.0528 116.321C54.2329 116.321 52.7365 114.825 52.7365 113.006C52.777 111.186 54.2329 109.69 56.0528 109.69Z" fill="#3A3957"/>
<path d="M56.0528 98.2886C57.8727 98.2886 59.369 99.7845 59.369 101.604C59.369 103.423 57.8727 104.919 56.0528 104.919C54.2329 104.919 52.7365 103.423 52.7365 101.604C52.777 99.7845 54.2329 98.2886 56.0528 98.2886Z" fill="#3A3957"/>
<path d="M55.0417 34.2856C42.7878 34.2856 32.7986 44.2722 32.7986 56.5228C32.7986 65.2964 36.4788 74.1509 43.4348 82.1563C48.6114 88.1401 53.7476 91.5363 53.9903 91.6576C54.3138 91.8598 54.7182 91.9811 55.0822 91.9811C55.4462 91.9811 55.8506 91.8598 56.1741 91.6576C56.3763 91.5363 61.5529 88.1401 66.7295 82.1563C73.6856 74.1509 77.3658 65.2964 77.3658 56.5228C77.2849 44.2722 67.2957 34.2856 55.0417 34.2856ZM55.0417 87.6145C50.9571 84.5821 36.7619 72.8166 36.7619 56.5633C36.7619 46.4959 44.9716 38.2883 55.0417 38.2883C65.1118 38.2883 73.3216 46.4959 73.3216 56.5633C73.2812 72.8166 59.1264 84.5417 55.0417 87.6145Z" fill="#3A3957"/>
<path d="M55.0418 47.709C50.1887 47.709 46.2254 51.6712 46.2254 56.523C46.2254 61.3747 50.1887 65.337 55.0418 65.337C59.8948 65.337 63.8582 61.3747 63.8582 56.523C63.8582 51.6712 59.8948 47.709 55.0418 47.709ZM55.0418 61.4152C52.3726 61.4152 50.1887 59.2319 50.1887 56.5634C50.1887 53.895 52.3726 51.7117 55.0418 51.7117C57.711 51.7117 59.8948 53.895 59.8948 56.5634C59.8544 59.2319 57.711 61.4152 55.0418 61.4152Z" fill="#3A3957"/>
</g>
<defs>
<clipPath id="clip0_3_35">
<rect width="150" height="150" fill="white"/>
</clipPath>
</defs>
</svg>
