<svg width="150" height="150" viewBox="0 0 150 150" fill="none" xmlns="http://www.w3.org/2000/svg">
<g clip-path="url(#clip0_3_61)">
<path d="M74.818 33.0005C50.0674 33.0005 29.8463 53.1811 29.8463 77.9722C29.8463 102.965 50.027 123.348 74.818 123.348C99.8113 123.348 120.194 102.965 120.194 77.9722C120.194 53.2216 99.8113 33.0005 74.818 33.0005ZM108.142 80.9649C108.142 87.557 102.764 92.9358 96.1715 92.9358C92.0868 92.9358 88.4875 90.8732 86.344 87.7996C83.4322 91.035 79.3071 92.9358 74.818 92.9358C66.5678 92.9358 59.8544 86.2224 59.8544 77.9722C59.8544 69.722 66.5678 63.0086 74.818 63.0086C78.2151 63.0086 81.491 64.141 84.2006 66.2035V66.0013C84.2006 64.3432 85.5352 63.0086 87.1933 63.0086C88.8514 63.0086 90.186 64.3432 90.186 66.0013C90.186 67.5785 90.186 79.509 90.186 80.9649C90.186 84.2812 92.8552 86.9504 96.1715 86.9504C99.4877 86.9504 102.157 84.2812 102.157 80.9649V77.9722C102.157 63.1299 89.9029 50.9973 74.818 50.9973C59.9757 50.9973 47.8835 63.1299 47.8835 77.9722C47.8835 93.0571 59.9757 105.352 74.818 105.352C80.8843 105.352 86.9911 103.289 91.6015 99.7705C92.8957 98.7595 94.7964 99.0021 95.8075 100.337C96.8186 101.631 96.5759 103.532 95.2413 104.543C89.6198 108.87 82.1785 111.337 74.818 111.337C56.619 111.337 41.8576 96.2116 41.8576 78.0126C41.8576 59.8541 56.619 45.0523 74.818 45.0523C93.017 45.0523 108.142 59.7732 108.142 78.0126V80.9649V80.9649Z" fill="white"/>
<path d="M74.818 68.9541C69.8436 68.9541 65.8398 73.0388 65.8398 77.9727C65.8398 82.9067 69.8841 86.9913 74.818 86.9913C79.9137 86.9913 84.2006 82.8258 84.2006 77.9727C84.2006 73.1196 79.9137 68.9541 74.818 68.9541Z" fill="white"/>
<path d="M91.3589 0H58.6816C26.247 0 0 26.247 0 58.6816V91.3589C0 123.753 26.247 150.04 58.6816 150.04H91.3589C123.753 150.04 150.04 123.793 150.04 91.3589V58.6816C150 26.247 123.753 0 91.3589 0ZM74.818 129.294C46.468 129.294 23.9013 105.918 23.9013 77.9725C23.9013 49.8248 46.6703 27.0558 74.818 27.0558C102.723 27.0558 126.139 49.5821 126.139 77.9725C126.139 106.161 102.885 129.294 74.818 129.294Z" fill="white"/>
</g>
<defs>
<clipPath id="clip0_3_61">
<rect width="150" height="150" fill="white"/>
</clipPath>
</defs>
</svg>
