<svg width="150" height="149" viewBox="0 0 150 149" fill="none" xmlns="http://www.w3.org/2000/svg">
<g clip-path="url(#clip0_3_66)">
<path d="M91.3589 0.344238H58.6816C26.247 0.344238 0 26.1868 0 58.1217V90.2955C0 122.191 26.247 148.073 58.6816 148.073H91.3589C123.753 148.073 150.04 122.23 150.04 90.2955V58.1217C150 26.1868 123.753 0.344238 91.3589 0.344238ZM75.0202 113.51C66.0421 113.51 58.722 110.922 54.5969 109.05L34.8207 115.262C34.4972 115.382 34.1332 115.421 33.8096 115.421C32.3942 115.421 31.1 114.545 30.6147 113.152C30.0485 111.439 31.0191 109.568 32.7986 109.01L53.8285 102.401C54.6778 102.122 55.5675 102.201 56.3359 102.6C58.9647 103.914 66.0825 106.94 74.9798 106.94C97.8296 106.94 116.393 88.6629 116.393 66.1652C116.393 43.6674 97.8296 25.3904 74.9798 25.3904C52.1704 25.3904 33.567 43.6674 33.567 66.1652C33.567 74.9652 37.2472 82.9688 38.8649 86.0349C39.7142 87.6675 39.0671 89.6186 37.409 90.4548C35.7509 91.291 33.7692 90.6539 32.9199 89.0213C31.1 85.5571 26.894 76.3589 26.894 66.1652C26.894 40.0439 48.4497 18.8203 74.9798 18.8203C101.51 18.8203 123.066 40.0439 123.066 66.1652C123.106 92.2467 101.51 113.51 75.0202 113.51ZM60.1779 50.2375C60.0971 50.2375 59.9757 50.2375 59.7735 50.3172C58.6411 50.7552 57.1448 51.5914 56.5786 53.0249C56.0528 54.3389 56.4977 55.8122 56.983 56.8077C60.0971 63.2982 64.2626 68.8729 69.3179 73.3724C74.454 77.8322 80.5204 81.2566 87.3955 83.5661C88.447 83.9245 89.9838 84.2032 91.278 83.5263C92.653 82.8095 93.3405 81.2566 93.6641 80.1018C93.7045 79.9028 93.7045 79.7833 93.7045 79.7037C92.653 78.3498 87.6382 75.0846 85.7374 74.5272C85.6161 74.6466 85.4543 74.8855 85.2116 75.3236C84.241 76.8765 82.2189 77.3941 80.6417 76.4385C79.0644 75.4828 78.5387 73.4919 79.5093 71.9389C80.1968 70.8638 81.9763 67.957 85.697 67.957C87.9213 67.957 91.1971 69.7489 93.5427 71.262C96.9803 73.4521 99.0833 75.4032 99.8113 77.0358C100.499 78.5489 100.58 80.1815 100.135 81.8539C99.1642 85.3181 97.1825 87.9462 94.4325 89.3797C92.9361 90.1761 91.278 90.5344 89.539 90.5344C88.1639 90.5344 86.708 90.2955 85.2521 89.7779C77.5276 87.1498 70.6929 83.2874 64.9097 78.2303C64.8692 78.1905 64.8692 78.1905 64.8288 78.1905C59.1265 73.0937 54.4756 66.8421 50.9976 59.595C49.5012 56.4891 49.299 53.3832 50.3909 50.5959C51.5233 47.7289 53.9499 45.5389 57.347 44.185C59.0051 43.5479 60.6632 43.4683 62.2809 43.9461C64.0199 44.4638 66.2038 46.2954 68.7921 49.4412C70.5716 51.5914 72.715 54.5778 72.9981 56.7679C73.4025 60.4312 70.6929 62.5018 69.6414 63.2982C68.1855 64.4131 66.0825 64.1344 64.9501 62.7009C63.8177 61.2674 64.1008 59.1968 65.5567 58.0819C65.9612 57.7633 66.1634 57.6041 66.2847 57.4846C65.5163 55.6928 61.6743 51.1136 60.1779 50.2375Z" fill="white"/>
</g>
<defs>
<clipPath id="clip0_3_66">
<rect width="150" height="147.729" fill="white" transform="translate(0 0.344238)"/>
</clipPath>
</defs>
</svg>
