<svg width="74" height="151" viewBox="0 0 74 151" fill="none" xmlns="http://www.w3.org/2000/svg">
<path d="M41.13 123.738C31.83 123.738 24.69 120.888 19.71 115.188C14.79 109.488 12.33 101.538 12.33 91.3381C12.33 81.1981 14.79 73.2781 19.71 67.5781C24.69 61.8181 31.83 58.9381 41.13 58.9381C50.37 58.9381 57.48 61.8181 62.46 67.5781C67.5 73.2781 70.02 81.1981 70.02 91.3381C70.02 101.478 67.5 109.428 62.46 115.188C57.48 120.888 50.37 123.738 41.13 123.738ZM41.13 120.408C47.85 120.408 52.95 117.768 56.43 112.488C59.91 107.148 61.65 100.098 61.65 91.3381C61.65 82.5781 59.91 75.5581 56.43 70.2781C52.95 64.9381 47.85 62.2681 41.13 62.2681C34.41 62.2681 29.31 64.9381 25.83 70.2781C22.41 75.5581 20.7 82.5781 20.7 91.3381C20.7 100.158 22.41 107.208 25.83 112.488C29.31 117.768 34.41 120.408 41.13 120.408Z" fill="black"/>
<path d="M13.536 85.136C15.168 84.704 17.208 84.272 19.656 83.84V38.264H6.336C6.24 39.368 5.976 40.928 5.544 42.944C5.16 44.912 4.776 46.232 4.392 46.904H2.88V35.6H43.056V46.904H41.544C41.16 46.232 40.752 44.912 40.32 42.944C39.936 40.928 39.696 39.368 39.6 38.264H26.28V83.84C28.632 84.224 30.672 84.68 32.4 85.208V86H13.536V85.136ZM65.4244 83.84C67.8724 84.272 69.6244 84.704 70.6804 85.136V86H60.1684L48.3604 64.4H39.7924V83.84C41.6644 84.128 43.6084 84.584 45.6244 85.208V86H27.2644V85.136C28.1284 84.848 29.1124 84.584 30.2164 84.344C31.3204 84.104 32.2804 83.936 33.0964 83.84V37.832C31.0804 37.544 29.1844 37.088 27.4084 36.464V35.6H51.0964C56.5684 35.6 60.5044 36.848 62.9044 39.344C65.3524 41.84 66.5764 45.344 66.5764 49.856C66.5764 53.888 65.5204 57.152 63.4084 59.648C61.3444 62.144 58.2964 63.656 54.2644 64.184L65.4244 83.84ZM39.7924 61.808H49.2244C52.9204 61.808 55.6324 60.752 57.3604 58.64C59.0884 56.528 59.9524 53.576 59.9524 49.784C59.9524 45.992 59.0884 43.136 57.3604 41.216C55.6324 39.248 52.9204 38.264 49.2244 38.264H39.7924V61.808Z" fill="black"/>
</svg>
